# xmcd
#
# Track frame offsets: 
#        150
#        20303
#        38138
#        55111
#        69286
#        82139
#        97970
#        112907
#        131551
#        145528
#        163978
#
# Disc length: 2415 seconds
#
# Revision: 5
# Processed by: cddbd v1.5.2PL0 Copyright (c) Steve Scherf et al.
# Submitted via: ExactAudioCopyFreeDBPlugin 1.0
#
DISCID=88096d0b
DTITLE=Suzy Bogguss - Nobody Love Nobody Gets Hurt
DYEAR=1998
DGENRE=Country
TTITLE0=Just Enough Rope
TTITLE1=When I Run
TTITLE2=I wish Hearts Would Break
TTITLE3=Nobody Love, Nobody Gets Hurt
TTITLE4=Family tree
TTITLE5=Somebody I Love
TTITLE6=Moonlight And Roses
TTITLE7=Take Me Back
TTITLE8=From Where I Stand
TTITLE9=I Surrender
TTITLE10=Train Of Thought
EXTD=
EXTT0=
EXTT1=
EXTT2=
EXTT3=
EXTT4=
EXTT5=
EXTT6=
EXTT7=
EXTT8=
EXTT9=
EXTT10=
PLAYORDER=
